<?xml version="1.0" standalone="no"?>
<!DOCTYPE svg PUBLIC "-//W3C//DTD SVG 20010904//EN"
 "http://www.w3.org/TR/2001/REC-SVG-20010904/DTD/svg10.dtd">
<svg version="1.0" xmlns="http://www.w3.org/2000/svg"
 width="48.000000pt" height="48.000000pt" viewBox="0 0 48.000000 48.000000"
 preserveAspectRatio="xMidYMid meet">

<g transform="translate(0.000000,48.000000) scale(0.100000,-0.100000)"
fill="#000000" stroke="none">
<path d="M180 471 c-112 -37 -175 -119 -174 -231 1 -138 96 -233 234 -233 109
0 195 64 226 169 32 112 -15 222 -120 276 -43 22 -128 32 -166 19z m90 -106
c26 -32 -13 -81 -47 -59 -23 14 -28 41 -13 59 16 19 44 19 60 0z m-67 -85 l37
-20 37 20 c21 11 48 20 60 20 22 0 23 -4 23 -75 l0 -75 -27 0 c-16 0 -43 -9
-60 -20 -33 -20 -33 -20 -65 0 -18 11 -45 20 -60 20 l-28 0 0 75 c0 71 1 75
23 75 12 0 39 -9 60 -20z"/>
</g>
</svg>
